<svg xmlns:mydata="http://www.w3.org/2000/svg" mydata:contrastcolor="53565A" mydata:template="Contrast" mydata:presentation="2.5" mydata:layouttype="undefined" mydata:specialfontid="undefined" mydata:id1="002" mydata:id2="120" mydata:companyname="Game Asset" mydata:companytagline="" version="1.1" xmlns="http://www.w3.org/2000/svg" xmlns:xlink="http://www.w3.org/1999/xlink" viewBox="0 0 550 470"><defs><linearGradient x1="65" y1="235" x2="485" y2="235" gradientUnits="userSpaceOnUse" id="color-111691"><stop offset="0" stop-color="#6441ce"></stop><stop offset="1" stop-color="#fefe67"></stop></linearGradient></defs><g fill="#6441ce" fill-rule="none" stroke="none" stroke-width="1" stroke-linecap="butt" stroke-linejoin="miter" stroke-miterlimit="10" stroke-dasharray="" stroke-dashoffset="0" font-family="none" font-weight="none" font-size="none" text-anchor="none" style="mix-blend-mode: normal"><g data-paper-data="{&quot;isGlobalGroup&quot;:true}"><g data-paper-data="{&quot;isPrimaryText&quot;:true}"><path d="M88.68672,327.0352v8.14022h9.34124c-1.20102,5.87164 -4.93751,9.00763 -10.27537,9.00763c-6.53887,0 -11.74327,-5.00424 -11.74327,-16.54734c0,-10.20864 5.13768,-15.88011 11.87672,-15.88011c5.60474,0 8.87418,2.8691 9.94175,8.20695l0.13345,0.66723h10.40881l-0.06672,-0.66723c-0.93412,-9.07435 -7.47299,-15.94683 -20.28384,-15.94683c-12.74412,0 -23.01949,8.74073 -23.01949,24.2205c0,15.01271 8.34039,23.68672 20.88435,23.68672c5.00424,0 8.34039,-1.00085 10.9426,-3.40288l2.06842,-4.80407l0.80068,7.27282h8.27367v-23.95361z" data-paper-data="{&quot;glyphName&quot;:&quot;G&quot;,&quot;glyphIndex&quot;:0,&quot;firstGlyphOfWord&quot;:true,&quot;word&quot;:1}" fill-rule="nonzero" id="path-id-98527"></path><path d="M142.46558,337.97779l4.20356,13.01101h11.34294l-16.4139,-46.03897h-12.94429l-16.61406,46.03897h11.14277l4.27028,-13.01101zM134.99259,314.02418l4.87079,15.74666h-9.8083z" data-paper-data="{&quot;glyphName&quot;:&quot;A&quot;,&quot;glyphIndex&quot;:1,&quot;word&quot;:1}" fill-rule="nonzero" id="path-id-17730"></path><path d="M214.05952,304.94983h-16.01356l-9.27452,36.09723l-9.27452,-36.09723h-16.4139v46.03897h10.47553v-20.41728c0,-4.47045 0,-10.47553 -0.13345,-15.21288c0.8674,4.73734 2.40203,10.74243 3.66977,15.14616l5.93836,20.48401h11.07604l5.80491,-20.48401c1.33446,-4.40373 2.8691,-10.47553 3.80322,-15.21288c-0.13345,4.73734 -0.13345,10.80915 -0.13345,15.2796v20.41728h10.47553z" data-paper-data="{&quot;glyphName&quot;:&quot;M&quot;,&quot;glyphIndex&quot;:2,&quot;word&quot;:1}" fill-rule="nonzero" id="path-id-65268"></path><path d="M257.89663,342.78186h-23.68672v-10.80915h21.48485v-8.14022h-21.48485v-10.74243h23.01949v-8.14022h-33.49502v46.03897h34.16225z" data-paper-data="{&quot;glyphName&quot;:&quot;E&quot;,&quot;glyphIndex&quot;:3,&quot;lastGlyphOfWord&quot;:true,&quot;word&quot;:1}" fill-rule="nonzero" id="path-id-98607"></path><path d="M302.52552,339.08984l3.95501,12.24084c0.01779,0.0556 0.04003,0.10944 0.06672,0.16154c0.02632,0.0521 0.05653,0.1018 0.09063,0.14911c0.03447,0.04731 0.07228,0.09164 0.11343,0.133c0.04152,0.04135 0.08581,0.07922 0.13289,0.1136c0.04745,0.03438 0.09712,0.06485 0.14902,0.09141c0.0519,0.02656 0.10564,0.04888 0.16125,0.06696c0.0556,0.01807 0.11232,0.03169 0.17014,0.04084c0.05746,0.00915 0.11547,0.01373 0.17404,0.01373h11.34294c0.03633,0 0.07265,-0.00178 0.10898,-0.00535c0.03633,-0.00357 0.07228,-0.00891 0.10787,-0.01601c0.03596,-0.00711 0.07136,-0.01594 0.1062,-0.02652c0.03484,-0.01057 0.06895,-0.02283 0.10231,-0.03676c0.03373,-0.01394 0.06672,-0.02949 0.09897,-0.04666c0.03188,-0.01717 0.06302,-0.03587 0.09341,-0.0561c0.0304,-0.02024 0.05968,-0.04191 0.08785,-0.06501c0.02817,-0.0231 0.05505,-0.04753 0.08062,-0.07329c0.02595,-0.02575 0.05041,-0.0527 0.0734,-0.08086c0.02298,-0.02815 0.04467,-0.05737 0.06506,-0.08766c0.02039,-0.03028 0.03911,-0.06148 0.05616,-0.09361c0.01705,-0.03212 0.03262,-0.06501 0.04671,-0.09865c0.01372,-0.03365 0.02595,-0.0679 0.0367,-0.10275c0.01038,-0.03485 0.01928,-0.07014 0.02669,-0.10586c0.00704,-0.03572 0.01223,-0.0717 0.01557,-0.10795c0.00371,-0.03625 0.00556,-0.07258 0.00556,-0.109c0,-0.1282 -0.0215,-0.25269 -0.0645,-0.37345l-16.4139,-46.03896c-0.01928,-0.05371 -0.04244,-0.10566 -0.0695,-0.15585c-0.02706,-0.05015 -0.05783,-0.09793 -0.0923,-0.14334c-0.03447,-0.04541 -0.07228,-0.08791 -0.11343,-0.1275c-0.04115,-0.03963 -0.08489,-0.07586 -0.13122,-0.1087c-0.04671,-0.03288 -0.09564,-0.062 -0.14679,-0.08735c-0.05115,-0.02532 -0.10379,-0.0466 -0.15791,-0.06383c-0.05449,-0.01724 -0.10991,-0.03023 -0.16625,-0.03898c-0.05634,-0.00871 -0.11306,-0.01307 -0.17014,-0.01307h-12.94429c-0.05671,0 -0.11324,0.00434 -0.16959,0.01301c-0.05597,0.00867 -0.11121,0.02157 -0.1657,0.0387c-0.05412,0.01713 -0.10657,0.03829 -0.15736,0.0635c-0.05115,0.02517 -0.0999,0.0541 -0.14623,0.0868c-0.04671,0.03266 -0.09045,0.06867 -0.13122,0.10804c-0.04115,0.0394 -0.07896,0.08168 -0.11343,0.12683c-0.03447,0.04519 -0.06543,0.09273 -0.09286,0.14262c-0.02706,0.04993 -0.05023,0.10162 -0.0695,0.15508l-16.61406,46.03898c-0.02484,0.06868 -0.04281,0.13912 -0.05393,0.21132c-0.01075,0.0722 -0.01446,0.14477 -0.01112,0.21771c0.00334,0.07294 0.0139,0.14485 0.03169,0.21573c0.01742,0.07088 0.0417,0.13936 0.07284,0.20546c0.03077,0.06609 0.06784,0.12852 0.11121,0.18729c0.04337,0.05877 0.09212,0.11274 0.14623,0.16193c0.05375,0.04918 0.11195,0.09263 0.17459,0.13034c0.06265,0.03771 0.12826,0.06896 0.19683,0.09374c0.12196,0.04402 0.2478,0.06603 0.37754,0.06603h11.14277c0.0582,0 0.11602,-0.00454 0.17348,-0.01363c0.05746,-0.00908 0.11399,-0.0226 0.16959,-0.04055c0.05523,-0.01794 0.1088,-0.0401 0.16069,-0.06647c0.0519,-0.02637 0.10138,-0.05662 0.14846,-0.09077c0.04708,-0.03414 0.09137,-0.07176 0.13289,-0.11285c0.04115,-0.04108 0.07877,-0.08513 0.11287,-0.13215c0.03447,-0.04701 0.06506,-0.09642 0.09174,-0.14822c0.02632,-0.0518 0.04856,-0.10535 0.06672,-0.16065l4.01951,-12.24574zM308.34823,349.87675l-3.95501,-12.24086c-0.01779,-0.05557 -0.04003,-0.10941 -0.06672,-0.16153c-0.02632,-0.05208 -0.05653,-0.10177 -0.09063,-0.14907c-0.03447,-0.04734 -0.07228,-0.09167 -0.11343,-0.133c-0.04152,-0.04137 -0.08581,-0.07925 -0.13289,-0.11365c-0.04745,-0.03436 -0.09712,-0.06481 -0.14902,-0.09136c-0.0519,-0.02658 -0.10564,-0.04891 -0.16125,-0.067c-0.0556,-0.01805 -0.11232,-0.03166 -0.17014,-0.04081c-0.05746,-0.00916 -0.11547,-0.01373 -0.17404,-0.01373h-15.01271c-0.0582,0 -0.11602,0.00454 -0.17348,0.01362c-0.05746,0.00908 -0.11399,0.02259 -0.16959,0.04053c-0.05523,0.01794 -0.1088,0.04011 -0.16069,0.0665c-0.0519,0.02636 -0.10138,0.0566 -0.14846,0.09074c-0.04708,0.03414 -0.09137,0.07176 -0.13289,0.11287c-0.04115,0.04107 -0.07877,0.08511 -0.11287,0.13211c-0.03447,0.04704 -0.06506,0.09645 -0.09174,0.14824c-0.02632,0.05178 -0.04856,0.10533 -0.06672,0.16064l-4.01951,12.24576h-8.75352l15.81172,-43.81487h11.37908l15.621,43.81487zM301.79546,329.44223l-4.87079,-15.74666c-0.02669,-0.08604 -0.0632,-0.16762 -0.10954,-0.24476c-0.04671,-0.07718 -0.10175,-0.14766 -0.16514,-0.21146c-0.06376,-0.06379 -0.134,-0.11905 -0.21073,-0.16575c-0.0771,-0.04674 -0.15865,-0.08359 -0.24465,-0.11054c-0.03447,-0.0109 -0.06969,-0.02007 -0.10564,-0.02752c-0.03559,-0.00741 -0.07136,-0.01309 -0.10731,-0.01701c-0.03633,-0.00389 -0.07265,-0.00601 -0.10898,-0.00634c-0.0367,-0.00033 -0.07302,0.00111 -0.10898,0.00434c-0.03633,0.00322 -0.07247,0.00823 -0.10843,0.01501c-0.03559,0.00675 -0.07099,0.01525 -0.1062,0.02552c-0.03484,0.01023 -0.06913,0.02217 -0.10286,0.03581c-0.03373,0.0136 -0.06672,0.02884 -0.09897,0.04571c-0.03225,0.01687 -0.06376,0.03529 -0.09452,0.05527c-0.0304,0.01994 -0.05968,0.04133 -0.08785,0.06417c-0.02854,0.02283 -0.05579,0.04702 -0.08174,0.07256c-0.02595,0.0255 -0.0506,0.05221 -0.07395,0.08012c-0.02335,0.02795 -0.04522,0.05697 -0.06561,0.08707c-0.02076,0.0301 -0.03985,0.06113 -0.05727,0.09308c-0.01742,0.03195 -0.03336,0.06468 -0.04782,0.09819c-0.01409,0.03355 -0.0265,0.06769 -0.03725,0.10242l-4.93751,15.74666c-0.0341,0.10831 -0.05115,0.21922 -0.05115,0.33273c0,0.03644 0.00185,0.07277 0.00556,0.10898c0.00334,0.03625 0.00853,0.07225 0.01557,0.10798c0.00741,0.0357 0.01631,0.07099 0.02669,0.10587c0.01075,0.03484 0.02298,0.0691 0.0367,0.10275c0.01409,0.03362 0.02965,0.0665 0.04671,0.09864c0.01705,0.0321 0.03577,0.06329 0.05616,0.09358c0.02039,0.03028 0.04207,0.05951 0.06506,0.08769c0.02298,0.02813 0.04745,0.05508 0.0734,0.08085c0.02558,0.02576 0.05245,0.05019 0.08062,0.07328c0.02817,0.02313 0.05746,0.0448 0.08785,0.065c0.0304,0.02024 0.06153,0.03894 0.09341,0.0561c0.03225,0.0172 0.06524,0.03277 0.09897,0.04671c0.03336,0.01394 0.06746,0.02619 0.10231,0.03675c0.03484,0.01056 0.07024,0.01941 0.1062,0.02652c0.03559,0.00708 0.07154,0.01242 0.10787,0.01601c0.03633,0.00356 0.07265,0.00534 0.10898,0.00534h9.8083c0.11195,0 0.22148,-0.01655 0.32861,-0.04965c0.06969,-0.02157 0.1366,-0.04975 0.20073,-0.08452c0.0645,-0.03477 0.12474,-0.07547 0.18071,-0.1221c0.05634,-0.04663 0.1075,-0.09831 0.15346,-0.15502c0.04596,-0.05668 0.086,-0.11732 0.1201,-0.18193c0.0341,-0.06457 0.06153,-0.13185 0.08229,-0.20184c0.02076,-0.06999 0.03447,-0.14132 0.04115,-0.21401c0.00704,-0.07273 0.00667,-0.1454 -0.00111,-0.21802c-0.00741,-0.07262 -0.02187,-0.14381 -0.04337,-0.21357zM295.85488,317.76401l-3.41623,10.89478h6.7863z" data-paper-data="{&quot;glyphName&quot;:&quot;A&quot;,&quot;glyphIndex&quot;:4,&quot;firstGlyphOfWord&quot;:true,&quot;fontStyleEffect&quot;:true,&quot;word&quot;:2}" fill-rule="evenodd" id="path-id-68596"></path><path d="M352.36049,307.44873c-3.24015,-3.03005 -7.72747,-4.54507 -13.46195,-4.54507c-4.92899,0 -9.0825,1.26681 -12.46055,3.80044c-3.68831,2.76627 -5.53246,6.40731 -5.53246,10.92314c0,4.48635 1.5489,7.99045 4.64671,10.51229c2.47432,2.01411 6.49958,3.71818 12.07578,5.11222c5.04316,1.18041 7.56474,3.11162 7.56474,5.79363c0,1.16002 -0.50635,2.1086 -1.51906,2.84574c-1.08054,0.78659 -2.47209,1.17989 -4.17465,1.17989c-4.34108,0 -6.91326,-2.03633 -7.71653,-6.109c-0.00593,-0.03132 -0.01334,-0.06229 -0.02224,-0.09291c-0.0089,-0.03066 -0.01909,-0.06088 -0.03058,-0.09069c-0.01149,-0.02977 -0.02409,-0.05899 -0.03781,-0.08769c-0.01409,-0.02869 -0.02928,-0.05673 -0.04559,-0.08413c-0.01631,-0.02736 -0.03392,-0.05397 -0.05282,-0.07985c-0.01853,-0.02587 -0.03818,-0.05091 -0.05894,-0.07512c-0.02076,-0.02417 -0.04263,-0.04741 -0.06561,-0.06973c-0.02261,-0.02228 -0.04634,-0.04356 -0.07117,-0.06383c-0.02447,-0.02024 -0.04986,-0.0394 -0.07618,-0.05749c-0.02632,-0.01805 -0.05338,-0.03496 -0.08118,-0.05071c-0.0278,-0.01572 -0.05616,-0.03023 -0.08507,-0.04354c-0.02891,-0.01331 -0.05838,-0.02534 -0.08841,-0.03609c-0.03003,-0.01075 -0.06061,-0.0202 -0.09174,-0.02836c-0.03077,-0.00816 -0.0619,-0.01496 -0.09341,-0.02041c-0.03114,-0.00545 -0.06265,-0.00955 -0.09452,-0.01229c-0.03188,-0.00274 -0.06376,-0.00411 -0.09564,-0.00411h-10.54226c-0.03633,0 -0.07265,0.00178 -0.10898,0.00534c-0.03633,0.0036 -0.07228,0.00893 -0.10787,0.01601c-0.03596,0.00712 -0.07136,0.01596 -0.1062,0.02652c-0.03484,0.01056 -0.06895,0.02282 -0.10231,0.03675c-0.03373,0.01394 -0.06672,0.02951 -0.09897,0.04671c-0.03188,0.01716 -0.06302,0.03586 -0.09341,0.0561c-0.0304,0.0202 -0.05968,0.04187 -0.08785,0.065c-0.02817,0.02309 -0.05505,0.04752 -0.08062,0.07328c-0.02595,0.02576 -0.05041,0.05271 -0.0734,0.08085c-0.02298,0.02817 -0.04467,0.0574 -0.06506,0.08769c-0.02039,0.03028 -0.03911,0.06148 -0.05616,0.09358c-0.01705,0.03214 -0.03262,0.06502 -0.04671,0.09864c-0.01372,0.03366 -0.02595,0.06791 -0.0367,0.10275c-0.01038,0.03488 -0.01928,0.07017 -0.02669,0.10587c-0.00704,0.03573 -0.01223,0.07173 -0.01557,0.10798c-0.00371,0.03622 -0.00556,0.07254 -0.00556,0.10898c0,0.0298 0.00111,0.05957 0.00334,0.0893c0.41924,5.20504 2.52047,9.17596 6.30367,11.91276c3.55301,2.57054 8.33798,3.85581 14.35493,3.85581c5.1147,0 9.4063,-1.24258 12.87479,-3.72773c3.85697,-2.76348 5.78545,-6.47324 5.78545,-11.12929c0,-7.94224 -5.13379,-13.12926 -15.40137,-15.56106c-3.51001,-0.82214 -5.92427,-1.72127 -7.2428,-2.69739c-1.09537,-0.81095 -1.64306,-1.90865 -1.64306,-3.29312c0,-2.50583 1.49756,-3.75874 4.49269,-3.75874c3.65458,0 5.73319,2.01061 6.23583,6.03183c0.00445,0.03325 0.01019,0.06626 0.01724,0.09903c0.00704,0.03277 0.01557,0.06515 0.02558,0.09714c0.01038,0.03199 0.02187,0.06346 0.03447,0.09441c0.01297,0.03092 0.02743,0.0612 0.04337,0.09085c0.01557,0.02965 0.03243,0.05855 0.0506,0.08668c0.01816,0.0281 0.03762,0.05532 0.05838,0.08168c0.02076,0.02636 0.04263,0.05171 0.06561,0.07606c0.02335,0.02439 0.04745,0.04769 0.07228,0.06989c0.02521,0.02217 0.05134,0.04317 0.0784,0.063c0.02706,0.01983 0.05505,0.0384 0.08396,0.05571c0.02854,0.01731 0.05783,0.03329 0.08785,0.04793c0.0304,0.01468 0.06116,0.02795 0.0923,0.03981c0.03151,0.01186 0.06339,0.02228 0.09564,0.03125c0.03225,0.00897 0.06487,0.01648 0.09786,0.02252c0.03299,0.00604 0.06617,0.01056 0.09953,0.01357c0.03373,0.00304 0.06728,0.00456 0.10064,0.00456h10.54226c0.03633,0 0.07265,-0.00178 0.10898,-0.00534c0.03633,-0.0036 0.07228,-0.00893 0.10787,-0.01601c0.03596,-0.00712 0.07136,-0.01596 0.1062,-0.02652c0.03484,-0.01056 0.06895,-0.02282 0.10231,-0.03675c0.03373,-0.01394 0.06672,-0.02951 0.09897,-0.04671c0.03188,-0.01716 0.06302,-0.03586 0.09341,-0.0561c0.0304,-0.0202 0.05968,-0.04187 0.08785,-0.065c0.02817,-0.02309 0.05505,-0.04752 0.08062,-0.07328c0.02595,-0.02576 0.05041,-0.05271 0.0734,-0.08085c0.02298,-0.02817 0.04467,-0.0574 0.06506,-0.08769c0.02039,-0.03028 0.03911,-0.06148 0.05616,-0.09358c0.01705,-0.03214 0.03262,-0.06502 0.04671,-0.09864c0.01372,-0.03366 0.02595,-0.06791 0.0367,-0.10275c0.01038,-0.03488 0.01928,-0.07017 0.02669,-0.10587c0.00704,-0.03573 0.01223,-0.07173 0.01557,-0.10798c0.00371,-0.03622 0.00556,-0.07254 0.00556,-0.10898c0,-0.04433 -0.00259,-0.0885 -0.00778,-0.1325c-0.57048,-4.7511 -2.30065,-8.47786 -5.19051,-11.1803zM327.77245,308.48338c2.9829,-2.23708 6.69159,-3.35562 11.12609,-3.35562c9.405,0 14.82607,4.1739 16.26321,12.52171h-8.30536c-0.87667,-4.67062 -3.64049,-7.00593 -8.29146,-7.00593c-1.9687,0 -3.5443,0.47696 -4.72678,1.43088c-1.32668,1.07031 -1.99002,2.58764 -1.99002,4.55196c0,2.13158 0.84794,3.82513 2.54382,5.08063c1.56466,1.15828 4.24915,2.183 8.05348,3.07416c9.12662,2.16153 13.68992,6.62713 13.68992,13.39679c0,3.89437 -1.61896,7.00149 -4.85689,9.32135c-3.08113,2.20771 -6.94088,3.31156 -11.57925,3.31156c-11.03972,0 -17.14303,-4.1739 -18.30994,-12.52171h8.42324c0.59124,2.13129 1.72238,3.81792 3.39343,5.05989c1.74518,1.29736 3.84288,1.94604 6.29311,1.94604c2.18481,0 4.01266,-0.53527 5.48353,-1.6058c1.62286,-1.18126 2.43428,-2.72924 2.43428,-4.64393c0,-3.85778 -3.08317,-6.50823 -9.2495,-7.95134c-5.25556,-1.31393 -8.99243,-2.87373 -11.2106,-4.67941c-2.55142,-2.07676 -3.82713,-5.00589 -3.82713,-8.78738c0,-3.77449 1.54761,-6.82244 4.64282,-9.14385z" data-paper-data="{&quot;glyphName&quot;:&quot;S&quot;,&quot;glyphIndex&quot;:5,&quot;fontStyleEffect&quot;:true,&quot;word&quot;:2}" fill-rule="evenodd" id="path-id-78288"></path><path d="M393.46195,307.44873c-3.24015,-3.03005 -7.72747,-4.54507 -13.46195,-4.54507c-4.92899,0 -9.0825,1.26681 -12.46055,3.80044c-3.68831,2.76627 -5.53246,6.40731 -5.53246,10.92314c0,4.48643 1.5489,7.99052 4.64671,10.51229c2.47432,2.01408 6.49958,3.71815 12.07578,5.11222c5.04316,1.18044 7.56474,3.11165 7.56474,5.79363c0,1.16002 -0.50635,2.1086 -1.51906,2.84574c-1.08054,0.78659 -2.47209,1.17989 -4.17465,1.17989c-4.34108,0 -6.91326,-2.03633 -7.71653,-6.109c-0.00593,-0.03129 -0.01334,-0.06226 -0.02224,-0.09291c-0.0089,-0.03066 -0.01909,-0.06088 -0.03058,-0.09069c-0.01149,-0.02977 -0.02409,-0.05899 -0.03781,-0.08769c-0.01409,-0.02869 -0.02928,-0.05673 -0.04559,-0.08413c-0.01631,-0.02736 -0.03392,-0.05397 -0.05282,-0.07985c-0.01853,-0.02587 -0.03818,-0.05091 -0.05894,-0.07512c-0.02076,-0.02417 -0.04263,-0.04741 -0.06561,-0.06973c-0.02261,-0.02228 -0.04634,-0.04356 -0.07117,-0.06383c-0.02447,-0.02024 -0.04986,-0.0394 -0.07618,-0.05749c-0.02632,-0.01805 -0.05338,-0.03496 -0.08118,-0.05071c-0.0278,-0.01572 -0.05616,-0.03023 -0.08507,-0.04354c-0.02891,-0.01331 -0.05838,-0.02534 -0.08841,-0.03609c-0.03003,-0.01075 -0.06061,-0.0202 -0.09174,-0.02836c-0.03077,-0.00816 -0.0619,-0.01496 -0.09341,-0.02041c-0.03114,-0.00545 -0.06265,-0.00955 -0.09452,-0.01229c-0.03188,-0.00274 -0.06376,-0.00411 -0.09564,-0.00411h-10.54226c-0.03633,0 -0.07265,0.00178 -0.10898,0.00534c-0.03633,0.0036 -0.07228,0.00893 -0.10787,0.01601c-0.03596,0.00712 -0.07136,0.01596 -0.1062,0.02652c-0.03484,0.01056 -0.06895,0.02282 -0.10231,0.03675c-0.03373,0.01394 -0.06672,0.02951 -0.09897,0.04671c-0.03188,0.01716 -0.06302,0.03586 -0.09341,0.0561c-0.0304,0.0202 -0.05968,0.04187 -0.08785,0.065c-0.02817,0.02309 -0.05505,0.04752 -0.08062,0.07328c-0.02595,0.02576 -0.05041,0.05271 -0.0734,0.08085c-0.02298,0.02817 -0.04467,0.0574 -0.06506,0.08769c-0.02039,0.03028 -0.03911,0.06148 -0.05616,0.09358c-0.01705,0.03214 -0.03262,0.06502 -0.04671,0.09864c-0.01372,0.03366 -0.02595,0.06791 -0.0367,0.10275c-0.01038,0.03488 -0.01928,0.07017 -0.02669,0.10587c-0.00704,0.03573 -0.01223,0.07173 -0.01557,0.10798c-0.00371,0.03622 -0.00556,0.07254 -0.00556,0.10898c0,0.0298 0.00111,0.05957 0.00334,0.0893c0.41924,5.205 2.52047,9.17592 6.30367,11.91276c3.55301,2.57054 8.33798,3.85581 14.35493,3.85581c5.1147,0 9.4063,-1.24258 12.87479,-3.72773c3.85697,-2.76348 5.78545,-6.47324 5.78545,-11.12929c0,-7.94224 -5.13379,-13.12926 -15.40137,-15.56106c-3.51001,-0.82218 -5.92427,-1.72131 -7.2428,-2.69739c-1.09537,-0.81095 -1.64306,-1.90865 -1.64306,-3.29312c0,-2.50583 1.49756,-3.75874 4.49269,-3.75874c3.65495,0 5.73356,2.01061 6.23583,6.03183c0.00445,0.03325 0.01019,0.06626 0.01724,0.09903c0.00704,0.03277 0.01557,0.06515 0.02558,0.09714c0.01038,0.03199 0.02187,0.06344 0.03447,0.09436c0.01297,0.03095 0.02743,0.06126 0.04337,0.09091c0.01557,0.02965 0.03243,0.05855 0.0506,0.08668c0.01816,0.0281 0.03762,0.05532 0.05838,0.08168c0.02076,0.02636 0.04263,0.05171 0.06561,0.07606c0.02335,0.02439 0.04745,0.04769 0.07228,0.06989c0.02521,0.02217 0.05134,0.04317 0.0784,0.063c0.02706,0.01983 0.05505,0.0384 0.08396,0.05571c0.02854,0.01731 0.05783,0.03329 0.08785,0.04793c0.0304,0.01468 0.06116,0.02795 0.0923,0.03981c0.03151,0.01186 0.06339,0.02228 0.09564,0.03125c0.03225,0.00897 0.06487,0.01648 0.09786,0.02252c0.03299,0.00604 0.06617,0.01056 0.09953,0.01357c0.03373,0.00304 0.06728,0.00456 0.10064,0.00456h10.54226c0.03633,0 0.07265,-0.00178 0.10898,-0.00534c0.03633,-0.0036 0.07228,-0.00893 0.10787,-0.01601c0.03596,-0.00712 0.07136,-0.01596 0.1062,-0.02652c0.03484,-0.01056 0.06895,-0.02282 0.10231,-0.03675c0.03373,-0.01394 0.06672,-0.02951 0.09897,-0.04671c0.03188,-0.01716 0.06302,-0.03586 0.09341,-0.0561c0.0304,-0.0202 0.05968,-0.04187 0.08785,-0.065c0.02817,-0.02309 0.05505,-0.04752 0.08062,-0.07328c0.02595,-0.02576 0.05041,-0.05271 0.0734,-0.08085c0.02298,-0.02817 0.04467,-0.0574 0.06506,-0.08769c0.02039,-0.03028 0.03911,-0.06148 0.05616,-0.09358c0.01705,-0.03214 0.03262,-0.06502 0.04671,-0.09864c0.01372,-0.03366 0.02595,-0.06791 0.0367,-0.10275c0.01038,-0.03488 0.01928,-0.07017 0.02669,-0.10587c0.00704,-0.03573 0.01223,-0.07173 0.01557,-0.10798c0.00371,-0.03622 0.00556,-0.07254 0.00556,-0.10898c0,-0.04433 -0.00259,-0.0885 -0.00778,-0.1325c-0.57048,-4.75113 -2.30065,-8.4779 -5.19051,-11.1803zM368.87391,308.48338c2.9829,-2.23708 6.69159,-3.35562 11.12609,-3.35562c9.405,0 14.82607,4.1739 16.26321,12.52171h-8.30536c-0.87667,-4.67062 -3.64049,-7.00593 -8.29146,-7.00593c-1.9687,0 -3.5443,0.47696 -4.72678,1.43088c-1.32668,1.07035 -1.99002,2.58767 -1.99002,4.55196c0,2.13162 0.84794,3.82516 2.54382,5.08063c1.56466,1.15831 4.24915,2.18303 8.05348,3.07416c9.12662,2.16153 13.68992,6.62713 13.68992,13.39679c0,3.89437 -1.61896,7.00149 -4.85689,9.32135c-3.08113,2.20771 -6.94088,3.31156 -11.57925,3.31156c-11.04009,0 -17.1434,-4.1739 -18.30994,-12.52171h8.42324c0.59124,2.13129 1.72238,3.81792 3.39343,5.05989c1.74518,1.29736 3.84288,1.94604 6.29311,1.94604c2.18481,0 4.01266,-0.53527 5.48353,-1.6058c1.62286,-1.18126 2.43428,-2.72924 2.43428,-4.64393c0,-3.85782 -3.08317,-6.50827 -9.2495,-7.95134c-5.25556,-1.31389 -8.99243,-2.87369 -11.2106,-4.67941c-2.55142,-2.07687 -3.82713,-5.006 -3.82713,-8.78738c0,-3.77453 1.54761,-6.82248 4.64282,-9.14385z" data-paper-data="{&quot;glyphName&quot;:&quot;S&quot;,&quot;glyphIndex&quot;:6,&quot;fontStyleEffect&quot;:true,&quot;word&quot;:2}" fill-rule="evenodd" id="path-id-25716"></path><path d="M440.69583,342.78186c0,-0.03644 -0.00185,-0.07277 -0.00556,-0.10898c-0.00334,-0.03625 -0.00853,-0.07225 -0.01557,-0.10798c-0.00741,-0.0357 -0.01631,-0.07099 -0.02669,-0.10587c-0.01075,-0.03484 -0.02298,-0.0691 -0.0367,-0.10275c-0.01409,-0.03362 -0.02965,-0.0665 -0.04671,-0.09864c-0.01705,-0.0321 -0.03577,-0.06329 -0.05616,-0.09358c-0.02039,-0.03028 -0.04207,-0.05951 -0.06506,-0.08769c-0.02298,-0.02813 -0.04745,-0.05508 -0.0734,-0.08085c-0.02558,-0.02576 -0.05245,-0.05019 -0.08062,-0.07328c-0.02817,-0.02313 -0.05746,-0.0448 -0.08785,-0.065c-0.0304,-0.02024 -0.06153,-0.03894 -0.09341,-0.0561c-0.03225,-0.0172 -0.06524,-0.03277 -0.09897,-0.04671c-0.03336,-0.01394 -0.06746,-0.02619 -0.10231,-0.03675c-0.03484,-0.01056 -0.07024,-0.01941 -0.1062,-0.02652c-0.03559,-0.00708 -0.07154,-0.01242 -0.10787,-0.01601c-0.03633,-0.00356 -0.07265,-0.00534 -0.10898,-0.00534h-22.57467v-8.58505h20.3728c0.03633,0 0.07265,-0.00178 0.10898,-0.00534c0.03633,-0.0036 0.07228,-0.00893 0.10787,-0.01601c0.03596,-0.00712 0.07136,-0.01596 0.1062,-0.02652c0.03484,-0.01056 0.06895,-0.02282 0.10231,-0.03675c0.03373,-0.01394 0.06672,-0.02951 0.09897,-0.04671c0.03188,-0.01716 0.06302,-0.03586 0.09341,-0.0561c0.0304,-0.0202 0.05968,-0.04187 0.08785,-0.065c0.02817,-0.02309 0.05505,-0.04752 0.08062,-0.07328c0.02595,-0.02576 0.05041,-0.05271 0.0734,-0.08085c0.02298,-0.02817 0.04467,-0.0574 0.06506,-0.08769c0.02039,-0.03028 0.03911,-0.06148 0.05616,-0.09358c0.01705,-0.03214 0.03262,-0.06502 0.04671,-0.09864c0.01372,-0.03366 0.02595,-0.06791 0.0367,-0.10275c0.01038,-0.03488 0.01928,-0.07017 0.02669,-0.10587c0.00704,-0.03573 0.01223,-0.07173 0.01557,-0.10798c0.00371,-0.03622 0.00556,-0.07254 0.00556,-0.10898v-8.14022c0,-0.03644 -0.00185,-0.07277 -0.00556,-0.10898c-0.00334,-0.03625 -0.00853,-0.07225 -0.01557,-0.10798c-0.00741,-0.0357 -0.01631,-0.07099 -0.02669,-0.10587c-0.01075,-0.03484 -0.02298,-0.0691 -0.0367,-0.10275c-0.01409,-0.03362 -0.02965,-0.0665 -0.04671,-0.09864c-0.01705,-0.0321 -0.03577,-0.06329 -0.05616,-0.09358c-0.02039,-0.03028 -0.04207,-0.05951 -0.06506,-0.08769c-0.02298,-0.02813 -0.04745,-0.05508 -0.0734,-0.08085c-0.02558,-0.02576 -0.05245,-0.05019 -0.08062,-0.07328c-0.02817,-0.02313 -0.05746,-0.0448 -0.08785,-0.065c-0.0304,-0.02024 -0.06153,-0.03894 -0.09341,-0.0561c-0.03225,-0.0172 -0.06524,-0.03277 -0.09897,-0.04671c-0.03336,-0.01394 -0.06746,-0.02619 -0.10231,-0.03675c-0.03484,-0.01056 -0.07024,-0.01941 -0.1062,-0.02652c-0.03559,-0.00708 -0.07154,-0.01242 -0.10787,-0.01601c-0.03633,-0.00356 -0.07265,-0.00534 -0.10898,-0.00534h-20.3728v-8.51832h21.90743c0.03633,0 0.07265,-0.00178 0.10898,-0.00534c0.03633,-0.0036 0.07228,-0.00893 0.10787,-0.01601c0.03596,-0.00712 0.07136,-0.01596 0.1062,-0.02652c0.03484,-0.01056 0.06895,-0.02282 0.10231,-0.03675c0.03373,-0.01394 0.06672,-0.02951 0.09897,-0.04671c0.03188,-0.01716 0.06302,-0.03586 0.09341,-0.0561c0.0304,-0.02024 0.05968,-0.04191 0.08785,-0.065c0.02817,-0.02309 0.05505,-0.04752 0.08062,-0.07328c0.02595,-0.02576 0.05041,-0.05271 0.0734,-0.08085c0.02298,-0.02817 0.04467,-0.0574 0.06506,-0.08769c0.02039,-0.03028 0.03911,-0.06148 0.05616,-0.09358c0.01705,-0.03214 0.03262,-0.06502 0.04671,-0.09864c0.01372,-0.03366 0.02595,-0.06791 0.0367,-0.10275c0.01038,-0.03488 0.01928,-0.07017 0.02669,-0.10587c0.00704,-0.03573 0.01223,-0.07173 0.01557,-0.10798c0.00371,-0.03625 0.00556,-0.07258 0.00556,-0.10898v-8.14022c0,-0.03644 -0.00185,-0.07277 -0.00556,-0.10898c-0.00334,-0.03625 -0.00853,-0.07225 -0.01557,-0.10798c-0.00741,-0.03573 -0.01631,-0.07102 -0.02669,-0.10587c-0.01075,-0.03484 -0.02298,-0.0691 -0.0367,-0.10275c-0.01409,-0.03362 -0.02965,-0.0665 -0.04671,-0.09864c-0.01705,-0.03214 -0.03577,-0.06333 -0.05616,-0.09358c-0.02039,-0.03028 -0.04207,-0.05951 -0.06506,-0.08769c-0.02298,-0.02813 -0.04745,-0.05508 -0.0734,-0.08085c-0.02558,-0.02576 -0.05245,-0.05019 -0.08062,-0.07328c-0.02817,-0.02313 -0.05746,-0.0448 -0.08785,-0.065c-0.0304,-0.02024 -0.06153,-0.03896 -0.09341,-0.05616c-0.03225,-0.01716 -0.06524,-0.03271 -0.09897,-0.04665c-0.03336,-0.01394 -0.06746,-0.02619 -0.10231,-0.03675c-0.03484,-0.01056 -0.07024,-0.01941 -0.1062,-0.02652c-0.03559,-0.00708 -0.07154,-0.01242 -0.10787,-0.01601c-0.03633,-0.00356 -0.07265,-0.00534 -0.10898,-0.00534h-33.49502c-0.03633,0 -0.07265,0.00178 -0.10898,0.00534c-0.03633,0.0036 -0.07228,0.00893 -0.10787,0.01601c-0.03596,0.00712 -0.07136,0.01596 -0.1062,0.02652c-0.03484,0.01056 -0.06895,0.02282 -0.10231,0.03675c-0.03373,0.01394 -0.06672,0.02949 -0.09897,0.04665c-0.03188,0.0172 -0.06302,0.03592 -0.09341,0.05616c-0.0304,0.0202 -0.05968,0.04187 -0.08785,0.065c-0.02817,0.02309 -0.05505,0.04752 -0.08062,0.07328c-0.02595,0.02576 -0.05041,0.05271 -0.0734,0.08085c-0.02298,0.02817 -0.04467,0.0574 -0.06506,0.08769c-0.02039,0.03025 -0.03911,0.06144 -0.05616,0.09358c-0.01705,0.03214 -0.03262,0.06502 -0.04671,0.09864c-0.01372,0.03366 -0.02595,0.06791 -0.0367,0.10275c-0.01038,0.03484 -0.01928,0.07013 -0.02669,0.10587c-0.00704,0.03573 -0.01223,0.07173 -0.01557,0.10798c-0.00371,0.03622 -0.00556,0.07254 -0.00556,0.10898v46.03897c0,0.03642 0.00185,0.07275 0.00556,0.109c0.00334,0.03625 0.00853,0.07223 0.01557,0.10795c0.00741,0.03572 0.01631,0.07101 0.02669,0.10586c0.01075,0.03485 0.02298,0.0691 0.0367,0.10275c0.01409,0.03365 0.02965,0.06653 0.04671,0.09865c0.01705,0.03212 0.03577,0.06332 0.05616,0.09361c0.02039,0.03028 0.04207,0.0595 0.06506,0.08766c0.02298,0.02815 0.04745,0.05511 0.0734,0.08086c0.02558,0.02576 0.05245,0.05019 0.08062,0.07329c0.02817,0.0231 0.05746,0.04477 0.08785,0.06501c0.0304,0.02024 0.06153,0.03894 0.09341,0.0561c0.03225,0.01717 0.06524,0.03272 0.09897,0.04666c0.03336,0.01394 0.06746,0.02619 0.10231,0.03676c0.03484,0.01057 0.07024,0.01941 0.1062,0.02652c0.03559,0.00711 0.07154,0.01244 0.10787,0.01601c0.03633,0.00357 0.07265,0.00535 0.10898,0.00535h34.16225c0.03633,0 0.07265,-0.00178 0.10898,-0.00535c0.03633,-0.00357 0.07228,-0.00891 0.10787,-0.01601c0.03596,-0.00711 0.07136,-0.01594 0.1062,-0.02652c0.03484,-0.01057 0.06895,-0.02283 0.10231,-0.03676c0.03373,-0.01394 0.06672,-0.02949 0.09897,-0.04666c0.03188,-0.01717 0.06302,-0.03587 0.09341,-0.0561c0.0304,-0.02024 0.05968,-0.04191 0.08785,-0.06501c0.02817,-0.0231 0.05505,-0.04753 0.08062,-0.07329c0.02595,-0.02575 0.05041,-0.0527 0.0734,-0.08086c0.02298,-0.02815 0.04467,-0.05737 0.06506,-0.08766c0.02039,-0.03028 0.03911,-0.06148 0.05616,-0.09361c0.01705,-0.03212 0.03262,-0.06501 0.04671,-0.09865c0.01372,-0.03365 0.02595,-0.0679 0.0367,-0.10275c0.01038,-0.03485 0.01928,-0.07014 0.02669,-0.10586c0.00704,-0.03572 0.01223,-0.0717 0.01557,-0.10795c0.00371,-0.03625 0.00556,-0.07258 0.00556,-0.109zM438.47172,343.89391h-22.57467c-0.03633,0 -0.07265,-0.00178 -0.10898,-0.00534c-0.03633,-0.0036 -0.07228,-0.00893 -0.10787,-0.01601c-0.03596,-0.00712 -0.07136,-0.01596 -0.1062,-0.02652c-0.03484,-0.01056 -0.06895,-0.02282 -0.10231,-0.03675c-0.03373,-0.01394 -0.06672,-0.02951 -0.09897,-0.04671c-0.03188,-0.01716 -0.06302,-0.03586 -0.09341,-0.0561c-0.0304,-0.0202 -0.05968,-0.04187 -0.08785,-0.065c-0.02817,-0.02309 -0.05505,-0.04752 -0.08062,-0.07328c-0.02595,-0.02576 -0.05041,-0.05271 -0.0734,-0.08085c-0.02298,-0.02817 -0.04467,-0.0574 -0.06506,-0.08769c-0.02039,-0.03028 -0.03911,-0.06148 -0.05616,-0.09358c-0.01705,-0.03214 -0.03262,-0.06502 -0.04671,-0.09864c-0.01372,-0.03366 -0.02595,-0.06791 -0.0367,-0.10275c-0.01038,-0.03488 -0.01928,-0.07017 -0.02669,-0.10587c-0.00704,-0.03573 -0.01223,-0.07173 -0.01557,-0.10798c-0.00371,-0.03622 -0.00556,-0.07254 -0.00556,-0.10898v-10.80915c0,-0.03644 0.00185,-0.07277 0.00556,-0.10898c0.00334,-0.03625 0.00853,-0.07225 0.01557,-0.10798c0.00741,-0.0357 0.01631,-0.07099 0.02669,-0.10587c0.01075,-0.03484 0.02298,-0.0691 0.0367,-0.10275c0.01409,-0.03362 0.02965,-0.0665 0.04671,-0.09864c0.01705,-0.0321 0.03577,-0.06329 0.05616,-0.09358c0.02039,-0.03028 0.04207,-0.05951 0.06506,-0.08769c0.02298,-0.02813 0.04745,-0.05508 0.0734,-0.08085c0.02558,-0.02576 0.05245,-0.05019 0.08062,-0.07328c0.02817,-0.02313 0.05746,-0.0448 0.08785,-0.065c0.0304,-0.02024 0.06153,-0.03894 0.09341,-0.0561c0.03225,-0.0172 0.06524,-0.03277 0.09897,-0.04671c0.03336,-0.01394 0.06746,-0.02619 0.10231,-0.03675c0.03484,-0.01056 0.07024,-0.01941 0.1062,-0.02652c0.03559,-0.00708 0.07154,-0.01242 0.10787,-0.01601c0.03633,-0.00356 0.07265,-0.00534 0.10898,-0.00534h20.3728v-5.91612h-20.3728c-0.03633,0 -0.07265,-0.00178 -0.10898,-0.00534c-0.03633,-0.0036 -0.07228,-0.00893 -0.10787,-0.01601c-0.03596,-0.00712 -0.07136,-0.01596 -0.1062,-0.02652c-0.03484,-0.01056 -0.06895,-0.02282 -0.10231,-0.03675c-0.03373,-0.01394 -0.06672,-0.02951 -0.09897,-0.04671c-0.03188,-0.01716 -0.06302,-0.03586 -0.09341,-0.0561c-0.0304,-0.0202 -0.05968,-0.04187 -0.08785,-0.065c-0.02817,-0.02309 -0.05505,-0.04752 -0.08062,-0.07328c-0.02595,-0.02576 -0.05041,-0.05271 -0.0734,-0.08085c-0.02298,-0.02817 -0.04467,-0.0574 -0.06506,-0.08769c-0.02039,-0.03028 -0.03911,-0.06148 -0.05616,-0.09358c-0.01705,-0.03214 -0.03262,-0.06502 -0.04671,-0.09864c-0.01372,-0.03366 -0.02595,-0.06791 -0.0367,-0.10275c-0.01038,-0.03488 -0.01928,-0.07017 -0.02669,-0.10587c-0.00704,-0.03573 -0.01223,-0.07173 -0.01557,-0.10798c-0.00371,-0.03622 -0.00556,-0.07254 -0.00556,-0.10898v-10.74243c0,-0.03644 0.00185,-0.07277 0.00556,-0.10898c0.00334,-0.03625 0.00853,-0.07225 0.01557,-0.10798c0.00741,-0.03573 0.01631,-0.07102 0.02669,-0.10587c0.01075,-0.03484 0.02298,-0.0691 0.0367,-0.10275c0.01409,-0.03362 0.02965,-0.0665 0.04671,-0.09864c0.01705,-0.03214 0.03577,-0.06333 0.05616,-0.09358c0.02039,-0.03028 0.04207,-0.05951 0.06506,-0.08769c0.02298,-0.02813 0.04745,-0.05508 0.0734,-0.08085c0.02558,-0.02576 0.05245,-0.05019 0.08062,-0.07328c0.02817,-0.02313 0.05746,-0.0448 0.08785,-0.065c0.0304,-0.02024 0.06153,-0.03896 0.09341,-0.05616c0.03225,-0.01716 0.06524,-0.03271 0.09897,-0.04665c0.03336,-0.01394 0.06746,-0.02619 0.10231,-0.03675c0.03484,-0.01056 0.07024,-0.01941 0.1062,-0.02652c0.03559,-0.00708 0.07154,-0.01242 0.10787,-0.01601c0.03633,-0.00356 0.07265,-0.00534 0.10898,-0.00534h21.90743v-5.91612h-31.27092v43.81487h31.93815z" data-paper-data="{&quot;glyphName&quot;:&quot;E&quot;,&quot;glyphIndex&quot;:7,&quot;fontStyleEffect&quot;:true,&quot;word&quot;:2}" fill-rule="evenodd" id="path-id-71131"></path><path d="M483.88795,314.20211c0.03633,0 0.07265,-0.00178 0.10898,-0.00534c0.03633,-0.0036 0.07228,-0.00893 0.10787,-0.01601c0.03596,-0.00712 0.07136,-0.01596 0.1062,-0.02652c0.03484,-0.01056 0.06895,-0.02282 0.10231,-0.03675c0.03373,-0.01394 0.06672,-0.02951 0.09897,-0.04671c0.03188,-0.01716 0.06302,-0.03586 0.09341,-0.0561c0.0304,-0.02024 0.05968,-0.04191 0.08785,-0.065c0.02817,-0.02309 0.05505,-0.04752 0.08062,-0.07328c0.02595,-0.02576 0.05041,-0.05271 0.0734,-0.08085c0.02298,-0.02817 0.04467,-0.0574 0.06506,-0.08769c0.02039,-0.03028 0.03911,-0.06148 0.05616,-0.09358c0.01705,-0.03214 0.03262,-0.06502 0.04671,-0.09864c0.01372,-0.03366 0.02595,-0.06791 0.0367,-0.10275c0.01038,-0.03488 0.01928,-0.07017 0.02669,-0.10587c0.00704,-0.03573 0.01223,-0.07173 0.01557,-0.10798c0.00371,-0.03625 0.00556,-0.07258 0.00556,-0.10898v-8.14022c0,-0.03644 -0.00185,-0.07277 -0.00556,-0.10898c-0.00334,-0.03625 -0.00853,-0.07225 -0.01557,-0.10798c-0.00741,-0.03573 -0.01631,-0.07102 -0.02669,-0.10587c-0.01075,-0.03484 -0.02298,-0.0691 -0.0367,-0.10275c-0.01409,-0.03362 -0.02965,-0.0665 -0.04671,-0.09864c-0.01705,-0.03214 -0.03577,-0.06333 -0.05616,-0.09358c-0.02039,-0.03028 -0.04207,-0.05951 -0.06506,-0.08769c-0.02298,-0.02813 -0.04745,-0.05508 -0.0734,-0.08085c-0.02558,-0.02576 -0.05245,-0.05019 -0.08062,-0.07328c-0.02817,-0.02313 -0.05746,-0.0448 -0.08785,-0.065c-0.0304,-0.02024 -0.06153,-0.03896 -0.09341,-0.05616c-0.03225,-0.01716 -0.06524,-0.03271 -0.09897,-0.04665c-0.03336,-0.01394 -0.06746,-0.02619 -0.10231,-0.03675c-0.03484,-0.01056 -0.07024,-0.01941 -0.1062,-0.02652c-0.03559,-0.00708 -0.07154,-0.01242 -0.10787,-0.01601c-0.03633,-0.00356 -0.07265,-0.00534 -0.10898,-0.00534h-41.10146c-0.03633,0 -0.07265,0.00178 -0.10898,0.00534c-0.03633,0.0036 -0.07228,0.00893 -0.10787,0.01601c-0.03596,0.00712 -0.07136,0.01596 -0.1062,0.02652c-0.03484,0.01056 -0.06895,0.02282 -0.10231,0.03675c-0.03373,0.01394 -0.06672,0.02949 -0.09897,0.04665c-0.03188,0.0172 -0.06302,0.03592 -0.09341,0.05616c-0.0304,0.0202 -0.05968,0.04187 -0.08785,0.065c-0.02817,0.02309 -0.05505,0.04752 -0.08062,0.07328c-0.02595,0.02576 -0.05041,0.05271 -0.0734,0.08085c-0.02298,0.02817 -0.04467,0.0574 -0.06506,0.08769c-0.02039,0.03025 -0.03911,0.06144 -0.05616,0.09358c-0.01705,0.03214 -0.03262,0.06502 -0.04671,0.09864c-0.01372,0.03366 -0.02595,0.06791 -0.0367,0.10275c-0.01038,0.03484 -0.01928,0.07013 -0.02669,0.10587c-0.00704,0.03573 -0.01223,0.07173 -0.01557,0.10798c-0.00371,0.03622 -0.00556,0.07254 -0.00556,0.10898v8.14022c0,0.0364 0.00185,0.07273 0.00556,0.10898c0.00334,0.03625 0.00853,0.07225 0.01557,0.10798c0.00741,0.0357 0.01631,0.07099 0.02669,0.10587c0.01075,0.03484 0.02298,0.0691 0.0367,0.10275c0.01409,0.03362 0.02965,0.0665 0.04671,0.09864c0.01705,0.0321 0.03577,0.06329 0.05616,0.09358c0.02039,0.03028 0.04207,0.05951 0.06506,0.08769c0.02298,0.02813 0.04745,0.05508 0.0734,0.08085c0.02558,0.02576 0.05245,0.05019 0.08062,0.07328c0.02817,0.02309 0.05746,0.04476 0.08785,0.065c0.0304,0.02024 0.06153,0.03894 0.09341,0.0561c0.03225,0.0172 0.06524,0.03277 0.09897,0.04671c0.03336,0.01394 0.06746,0.02619 0.10231,0.03675c0.03484,0.01056 0.07024,0.01941 0.1062,0.02652c0.03559,0.00708 0.07154,0.01242 0.10787,0.01601c0.03633,0.00356 0.07265,0.00534 0.10898,0.00534h14.23427v36.7867c0,0.03642 0.00185,0.07275 0.00556,0.109c0.00334,0.03625 0.00853,0.07223 0.01557,0.10795c0.00741,0.03572 0.01631,0.07101 0.02669,0.10586c0.01075,0.03485 0.02298,0.0691 0.0367,0.10275c0.01409,0.03365 0.02965,0.06653 0.04671,0.09865c0.01705,0.03212 0.03577,0.06332 0.05616,0.09361c0.02039,0.03028 0.04207,0.0595 0.06506,0.08766c0.02298,0.02815 0.04745,0.05511 0.0734,0.08086c0.02558,0.02576 0.05245,0.05019 0.08062,0.07329c0.02817,0.0231 0.05746,0.04477 0.08785,0.06501c0.0304,0.02024 0.06153,0.03894 0.09341,0.0561c0.03225,0.01717 0.06524,0.03272 0.09897,0.04666c0.03336,0.01394 0.06746,0.02619 0.10231,0.03676c0.03484,0.01057 0.07024,0.01941 0.1062,0.02652c0.03559,0.00711 0.07154,0.01244 0.10787,0.01601c0.03633,0.00357 0.07265,0.00535 0.10898,0.00535h10.40881c0.03633,0 0.07265,-0.00178 0.10898,-0.00535c0.03633,-0.00357 0.07228,-0.00891 0.10787,-0.01601c0.03596,-0.00711 0.07136,-0.01594 0.1062,-0.02652c0.03484,-0.01057 0.06895,-0.02283 0.10231,-0.03676c0.03373,-0.01394 0.06672,-0.02949 0.09897,-0.04666c0.03188,-0.01717 0.06302,-0.03587 0.09341,-0.0561c0.0304,-0.02024 0.05968,-0.04191 0.08785,-0.06501c0.02817,-0.0231 0.05505,-0.04753 0.08062,-0.07329c0.02595,-0.02575 0.05041,-0.0527 0.0734,-0.08086c0.02298,-0.02815 0.04467,-0.05737 0.06506,-0.08766c0.02039,-0.03028 0.03911,-0.06148 0.05616,-0.09361c0.01705,-0.03212 0.03262,-0.06501 0.04671,-0.09865c0.01372,-0.03365 0.02595,-0.0679 0.0367,-0.10275c0.01038,-0.03485 0.01928,-0.07014 0.02669,-0.10586c0.00704,-0.03572 0.01223,-0.0717 0.01557,-0.10795c0.00371,-0.03625 0.00556,-0.07258 0.00556,-0.109v-36.7867zM482.77589,311.978h-14.23427c-0.03633,0 -0.07265,0.00178 -0.10898,0.00534c-0.03633,0.0036 -0.07228,0.00893 -0.10787,0.01601c-0.03596,0.00712 -0.07136,0.01596 -0.1062,0.02652c-0.03484,0.01056 -0.06895,0.02282 -0.10231,0.03675c-0.03373,0.01394 -0.06672,0.02949 -0.09897,0.04665c-0.03188,0.0172 -0.06302,0.03592 -0.09341,0.05616c-0.0304,0.0202 -0.05968,0.04187 -0.08785,0.065c-0.02817,0.02309 -0.05505,0.04752 -0.08062,0.07328c-0.02595,0.02576 -0.05041,0.05271 -0.0734,0.08085c-0.02298,0.02817 -0.04467,0.0574 -0.06506,0.08769c-0.02039,0.03025 -0.03911,0.06144 -0.05616,0.09358c-0.01705,0.03214 -0.03262,0.06502 -0.04671,0.09864c-0.01372,0.03366 -0.02595,0.06791 -0.0367,0.10275c-0.01038,0.03484 -0.01928,0.07013 -0.02669,0.10587c-0.00704,0.03573 -0.01223,0.07173 -0.01557,0.10798c-0.00371,0.03622 -0.00556,0.07254 -0.00556,0.10898v36.7867h-8.18471v-36.7867c0,-0.03644 -0.00185,-0.07277 -0.00556,-0.10898c-0.00334,-0.03625 -0.00853,-0.07225 -0.01557,-0.10798c-0.00741,-0.03573 -0.01631,-0.07102 -0.02669,-0.10587c-0.01075,-0.03484 -0.02298,-0.0691 -0.0367,-0.10275c-0.01409,-0.03362 -0.02965,-0.0665 -0.04671,-0.09864c-0.01705,-0.03214 -0.03577,-0.06333 -0.05616,-0.09358c-0.02039,-0.03028 -0.04207,-0.05951 -0.06506,-0.08769c-0.02298,-0.02813 -0.04745,-0.05508 -0.0734,-0.08085c-0.02558,-0.02576 -0.05245,-0.05019 -0.08062,-0.07328c-0.02817,-0.02313 -0.05746,-0.0448 -0.08785,-0.065c-0.0304,-0.02024 -0.06153,-0.03896 -0.09341,-0.05616c-0.03225,-0.01716 -0.06524,-0.03271 -0.09897,-0.04665c-0.03336,-0.01394 -0.06746,-0.02619 -0.10231,-0.03675c-0.03484,-0.01056 -0.07024,-0.01941 -0.1062,-0.02652c-0.03559,-0.00708 -0.07154,-0.01242 -0.10787,-0.01601c-0.03633,-0.00356 -0.07265,-0.00534 -0.10898,-0.00534h-14.23427v-5.91612h38.87736z" data-paper-data="{&quot;glyphName&quot;:&quot;T&quot;,&quot;glyphIndex&quot;:8,&quot;lastGlyphOfWord&quot;:true,&quot;fontStyleEffect&quot;:true,&quot;word&quot;:2}" fill-rule="evenodd" id="path-id-89419"></path></g><g data-paper-data="{&quot;fillRule&quot;:&quot;evenodd&quot;,&quot;isIcon&quot;:&quot;true&quot;,&quot;iconType&quot;:&quot;icon&quot;,&quot;rawIconId&quot;:&quot;51136&quot;,&quot;selectedEffects&quot;:{&quot;container&quot;:&quot;triangle_simple_outline2&quot;,&quot;transformation&quot;:&quot;&quot;,&quot;pattern&quot;:&quot;&quot;},&quot;blockLetter&quot;:&quot;A&quot;,&quot;blockLetterId&quot;:&quot;0&quot;,&quot;relativeBoundsIconToContainer&quot;:{&quot;top&quot;:&quot;0.12688268511479803&quot;,&quot;left&quot;:&quot;-0.0002469922064112856&quot;},&quot;widthRatioIconToContainer&quot;:&quot;0.5086949255875797&quot;,&quot;heightRatioIconToContainer&quot;:&quot;0.5809989334143517&quot;,&quot;bounds&quot;:{&quot;x&quot;:185.78092086089907,&quot;y&quot;:116.96501672487958,&quot;width&quot;:178.43815827820197,&quot;height&quot;:155.14716740209062},&quot;iconStyle&quot;:&quot;standalone&quot;}" fill-rule="evenodd"><g data-paper-data="{&quot;isPathIcon&quot;:true}"><path d="M364.09811,269.07918c-0.025,-0.071 -0.052,-0.14 -0.084,-0.209c-0.031,-0.068 -0.065,-0.135 -0.102,-0.2l-86.92509,-150.55816c-0.10067,-0.174 -0.222,-0.33233 -0.364,-0.475c-0.143,-0.142 -0.301,-0.264 -0.476,-0.365c-0.13,-0.075 -0.267,-0.137 -0.409,-0.185c-0.143,-0.049 -0.289,-0.083 -0.438,-0.102c-0.15,-0.02 -0.3,-0.025 -0.45,-0.015c-0.15,0.01 -0.298,0.034 -0.444,0.073c-0.145,0.039 -0.286,0.092 -0.421,0.159c-0.135,0.066 -0.262,0.145 -0.382,0.237c-0.12,0.092 -0.229,0.194 -0.328,0.308c-0.1,0.113 -0.187,0.235 -0.262,0.365l-86.92509,150.55816c-0.1,0.174 -0.177,0.359 -0.229,0.553c-0.052,0.195 -0.078,0.393 -0.078,0.594c0,0.075 0.004,0.15 0.011,0.225c0.007,0.075 0.018,0.149 0.033,0.223c0.015,0.074 0.033,0.146 0.055,0.218c0.022,0.072 0.047,0.143 0.076,0.212c0.028,0.07 0.06,0.138 0.096,0.204c0.035,0.066 0.074,0.131 0.116,0.193c0.041,0.063 0.086,0.123 0.134,0.181c0.048,0.058 0.098,0.114 0.151,0.167c0.05333,0.05267 0.109,0.103 0.167,0.151c0.058,0.048 0.118,0.092 0.181,0.134c0.062,0.042 0.127,0.081 0.193,0.116c0.066,0.035 0.134,0.067 0.204,0.096c0.069,0.029 0.14,0.054 0.212,0.076c0.072,0.022 0.144,0.04 0.218,0.055c0.074,0.015 0.148,0.026 0.223,0.033c0.075,0.007 0.15,0.011 0.225,0.011h173.84819c0.202,0 0.4,-0.026 0.594,-0.078c0.195,-0.052 0.379,-0.129 0.554,-0.229c0.065,-0.038 0.128,-0.079 0.189,-0.123c0.061,-0.043 0.12,-0.09 0.177,-0.14c0.056,-0.049 0.11,-0.101 0.162,-0.156c0.051,-0.055 0.099,-0.112 0.145,-0.172c0.046,-0.06 0.088,-0.121 0.128,-0.185c0.04,-0.064 0.076,-0.129 0.109,-0.197c0.03333,-0.06733 0.06333,-0.13633 0.09,-0.207c0.027,-0.07 0.05,-0.141 0.069,-0.214c0.019,-0.073 0.035,-0.146 0.047,-0.22c0.013,-0.074 0.021,-0.149 0.026,-0.224c0.005,-0.075 0.006,-0.15 0.004,-0.225c-0.003,-0.075 -0.009,-0.15 -0.019,-0.224c-0.009,-0.075 -0.023,-0.149 -0.04,-0.222c-0.017,-0.073 -0.038,-0.145 -0.061,-0.217zM357.95011,267.52218h-165.90018l82.95009,-143.67316z" id="path-id-5663"></path><path d="M245.64299,200.31011c19.13702,-5.33601 46.60905,1.033 61.08407,11.05101c5.88201,4.075 8.85101,5.15701 9.75501,5.41901c0.208,0.06 0.306,0.077 0.308,0.076c1.55,0 3.38,-1.269 3.517,-2.417c0.286,-1.671 -1.316,-5.36601 -2.179,-6.92301c-3.449,-7.25401 -15.03502,-20.01202 -28.84203,-29.29203c0.269,-0.595 0.629,-1.151 1.083,-1.646c1.121,-1.218 2.649,-1.927 4.301,-1.997c0.603,-0.025 1.072,-0.534 1.047,-1.138c-0.026,-0.603 -0.532,-1.07 -1.138,-1.046c-2.238,0.094 -4.304,1.054 -5.81901,2.702c-0.537,0.584 -0.977,1.23 -1.324,1.918c-11.75501,-7.43301 -26.78603,-11.59901 -35.23004,-3.28c-15.96602,19.21402 -7.27101,26.77503 -7.27101,26.77503c0.234,-0.07 0.471,-0.136 0.708,-0.202z" id="path-id-87816"></path><path d="M240.00098,211.83612c-5.87301,0.697 -10.43001,5.69501 -10.43001,11.75401c0,6.05801 4.556,11.05401 10.43001,11.75201c4.85901,13.94402 18.12302,23.95203 33.72404,23.95203c15.59502,0 28.86003,-10.00801 33.72104,-23.95203c5.87401,-0.699 10.43001,-5.69501 10.43001,-11.75201c0,-2.015 -0.506,-3.909 -1.394,-5.57101c-0.904,-0.261 -3.873,-1.343 -9.75501,-5.41801c-14.47502,-10.01901 -41.94705,-16.38802 -61.08407,-11.05201c-2.409,3.066 -4.332,6.53201 -5.64201,10.28701zM257.021,228.91614c-6.10301,0 -11.07201,-4.96801 -11.07201,-11.07201c0,-6.10701 4.96901,-11.07201 11.07401,-11.07201c5.89001,0 10.71701,4.62 11.05201,10.43001c1.316,-1.763 3.41,-2.85 5.65001,-2.85c2.238,0 4.331,1.087 5.64501,2.851c0.335,-5.81001 5.16301,-10.43101 11.05201,-10.43101c6.10601,0 11.07201,4.96601 11.07201,11.07201c0,6.10501 -4.96701,11.07201 -11.07201,11.07201c-5.62301,0 -10.27801,-4.217 -10.97701,-9.65201c-0.207,-0.023 -0.395,-0.148 -0.491,-0.348c-0.956,-2.014 -3.009,-3.314 -5.23001,-3.314c-2.225,0 -4.279,1.3 -5.23601,3.314c-0.095,0.199 -0.284,0.319 -0.488,0.344c-0.698,5.43701 -5.35301,9.65601 -10.97901,9.65601zM274.46202,240.99815c-3.225,3.672 -16.90902,5.94201 -21.55902,2.524c-4.423,-3.249 -1.725,-9.51101 1.927,-9.45501c3.566,0.057 2.69,3.852 2.69,3.852c0,0 0.03,-2.551 -2.804,-2.551c-2.464,0 -3.651,4.249 -0.765,6.11801c2.89,1.868 7.47401,-0.681 12.65501,-4.335c3.262,-2.296 6.39101,-2.171 7.85701,-0.723c1.465,-1.448 4.592,-1.573 7.85301,0.723c5.18201,3.654 9.76901,6.20301 12.65501,4.335c2.891,-1.869 1.7,-6.11801 -0.766,-6.11801c-2.829,0 -2.803,2.551 -2.803,2.551c0,0 -0.873,-3.796 2.692,-3.852c3.652,-0.057 6.34901,6.20601 1.927,9.45501c-4.65601,3.418 -18.33502,1.148 -21.55902,-2.524z" id="path-id-29834"></path><path d="M247.19999,217.84413c0,5.41601 4.406,9.82201 9.82301,9.82201c5.41701,0 9.82301,-4.406 9.82301,-9.82201c0,-5.41801 -4.406,-9.82301 -9.82301,-9.82301c-5.41701,0 -9.82301,4.405 -9.82301,9.82301z" id="path-id-15021"></path><path d="M280.60002,217.84413c0,5.41601 4.405,9.82201 9.82201,9.82201c5.41601,0 9.82401,-4.406 9.82401,-9.82201c0,-5.41801 -4.408,-9.82301 -9.82401,-9.82301c-5.41701,0 -9.82201,4.405 -9.82201,9.82301z" id="path-id-26202"></path></g></g></g></g><rect data-path-id="path-id-5663" class="invisible-bbox" x="186" y="117" fill="transparent" width="178" height="155"></rect><rect data-path-id="path-id-29834" class="invisible-bbox" x="230" y="200" fill="transparent" width="88" height="60"></rect><rect data-path-id="path-id-87816" class="invisible-bbox" x="243" y="169" fill="transparent" width="78" height="48"></rect><rect data-path-id="path-id-65268" class="invisible-bbox" x="163" y="305" fill="transparent" width="51" height="46"></rect><rect data-path-id="path-id-68596" class="invisible-bbox" x="272" y="304" fill="transparent" width="48" height="48"></rect><rect data-path-id="path-id-17730" class="invisible-bbox" x="112" y="305" fill="transparent" width="46" height="46"></rect><rect data-path-id="path-id-98527" class="invisible-bbox" x="65" y="304" fill="transparent" width="43" height="48"></rect><rect data-path-id="path-id-89419" class="invisible-bbox" x="442" y="304" fill="transparent" width="43" height="48"></rect><rect data-path-id="path-id-78288" class="invisible-bbox" x="319" y="303" fill="transparent" width="39" height="50"></rect><rect data-path-id="path-id-25716" class="invisible-bbox" x="360" y="303" fill="transparent" width="39" height="50"></rect><rect data-path-id="path-id-71131" class="invisible-bbox" x="404" y="304" fill="transparent" width="36" height="48"></rect><rect data-path-id="path-id-98607" class="invisible-bbox" x="224" y="305" fill="transparent" width="34" height="46"></rect><rect data-path-id="path-id-15021" class="invisible-bbox" x="247" y="208" fill="transparent" width="20" height="20"></rect><rect data-path-id="path-id-26202" class="invisible-bbox" x="281" y="208" fill="transparent" width="20" height="20"></rect></svg>